inDegrees=no
num_controls=7
num_derivatives=13
num_iterations=143
num_multipliers=7
num_parameters=0
num_slacks=7
num_states=26
objective=0.516715
objective_accelerations=0.039735
objective_balance=0.002200
objective_effort=0.043734
objective_height=0.419421
objective_ligament=0.011625
solver_duration=1891.845497
status=Solve_Succeeded
success=true
DataType=double
version=3
OpenSimVersion=4.5
endheader
time	/jointset/ground_pelvis/pelvis_tilt/value	/jointset/ground_pelvis/pelvis_tx/value	/jointset/ground_pelvis/pelvis_ty/value	/jointset/hip_l/hip_flexion_l/value	/jointset/hip_l/hip_adduction_l/value	/jointset/hip_l/hip_rotation_l/value	/jointset/back/lumbar_extension/value	/jointset/patellofemoral_l/patellar_flexion_l/value	/jointset/knee_l/knee_flexion_l/value	/jointset/knee_l/knee_adduction_l/value	/jointset/knee_l/knee_rotation_l/value	/jointset/ankle_l/ankle_angle_l/value	/jointset/subtalar_l/subtalar_angle_l/value	/jointset/ground_pelvis/pelvis_tilt/speed	/jointset/ground_pelvis/pelvis_tx/speed	/jointset/ground_pelvis/pelvis_ty/speed	/jointset/hip_l/hip_flexion_l/speed	/jointset/hip_l/hip_adduction_l/speed	/jointset/hip_l/hip_rotation_l/speed	/jointset/back/lumbar_extension/speed	/jointset/patellofemoral_l/patellar_flexion_l/speed	/jointset/knee_l/knee_flexion_l/speed	/jointset/knee_l/knee_adduction_l/speed	/jointset/knee_l/knee_rotation_l/speed	/jointset/ankle_l/ankle_angle_l/speed	/jointset/subtalar_l/subtalar_angle_l/speed	/forceset/tau_hip_flexion_l	/forceset/tau_hip_adduction_l	/forceset/tau_hip_rotation_l	/forceset/tau_knee_flexion_l	/forceset/tau_ankle_angle_l	/forceset/tau_subtalar_angle_l	/forceset/tau_lumbar_extension	lambda_cid13_p0	lambda_cid13_p1	lambda_cid13_p2	lambda_cid13_p3	lambda_cid13_p4	lambda_cid13_p5	lambda_cid14_p0	/jointset/ground_pelvis/pelvis_tilt/accel	/jointset/ground_pelvis/pelvis_tx/accel	/jointset/ground_pelvis/pelvis_ty/accel	/jointset/hip_l/hip_flexion_l/accel	/jointset/hip_l/hip_adduction_l/accel	/jointset/hip_l/hip_rotation_l/accel	/jointset/back/lumbar_extension/accel	/jointset/patellofemoral_l/patellar_flexion_l/accel	/jointset/knee_l/knee_flexion_l/accel	/jointset/knee_l/knee_adduction_l/accel	/jointset/knee_l/knee_rotation_l/accel	/jointset/ankle_l/ankle_angle_l/accel	/jointset/subtalar_l/subtalar_angle_l/accel	gamma_cid13_p0	gamma_cid13_p1	gamma_cid13_p2	gamma_cid13_p3	gamma_cid13_p4	gamma_cid13_p5	gamma_cid14_p0
1.5	-0.01459645065724258	-0.02588864806643093	0.8685948594539693	0.6325031666209646	-0.3126448213447504	-0.1778045358487462	-0.7850580941753402	0.6395034979837367	0.6395034979837406	-0.1084422229828868	-0.1745323061657941	0.07001242438906985	0.005509422072584131	0.3874347245867547	0.2784210497063813	0.3437488681646877	-1.866494438211223	0.09417999449005916	-0.5362515525083872	0.8393984641165412	-1.641281401949473	-1.641281401949364	-0.1263207748014749	7.139994010604682e-06	-0.2509016574112053	0.02124049767764523	-0.2049159006583292	0.01369418612540532	-0.0038245060601282	-0.1908668524644499	0.09627315865770433	0.04727373158871443	0.2807596207137518	-11.63711383023864	-20.68127098393302	5.341919410117735	-8.595594043404947	-673.1605827776364	-81.98216324507555	-19.9253508254211	-0.005497541281607438	0.6302136518568863	-0.5012753676466356	-0.6316510829105116	0.3196694526360501	-0.213877080199535	1.752065753103532	-0.6297657973652333	-0.6297657973652283	-0.2954925627443097	0.03567549943661733	0.03214793433169295	0.3401733290890053	2.139711853423213e-09	1.023523639132764e-06	1.442680441282275e-07	1.576830331428017e-07	8.427912603311849e-08	1.49340839824559e-07	1.004968321427174e-07
1.51	-0.01072282518987304	-0.02307321789381355	0.8720066229151358	0.6138087106555863	-0.3116875009239293	-0.1831788825868242	-0.7765777368832882	0.623061291196266	0.6230612911962665	-0.1097201158435485	-0.1745322413279131	0.06750533233581188	0.005738432942693833	0.3872374963596542	0.2846323931193682	0.3385386583476565	-1.87215842851688	0.09727575259665849	-0.5385653355722498	0.8565556693390377	-1.646938541002975	-1.646938541002904	-0.1292520649577442	3.996305209298515e-06	-0.2504678537925343	0.02456663017731455	-0.1974389900336051	0.0128815988870437	-0.003789738714623686	-0.1882149905423771	0.09583328550942496	0.04636471786288421	0.2737824869659517	-11.58726857439822	-20.34086430080539	5.339793075969567	-8.351422513417408	-669.4053942976884	-81.87480695129398	-20.40047782340735	-0.03477619220773528	0.6117389512954768	-0.5406523070392978	-0.4980359794223852	0.303105914604015	-0.2321795554608879	1.679949163605949	-0.5004950963218125	-0.5004950963274194	-0.290891308793745	-0.01857149852737049	0.05635929207971675	0.3293861136552821	-6.225593821182836e-09	1.050104191281672e-06	1.742665274235532e-07	1.625780468326538e-07	8.257635758624243e-08	1.495594687378659e-07	9.791909313233582e-08
1.52	-0.006852760150531216	-0.02019664543401111	0.8753643325744703	0.5950647621921453	-0.310699507537056	-0.1885747772827368	-0.7679293272876546	0.6065691515908646	0.6065691515908611	-0.1110271104191182	-0.1745322603660172	0.06500405086202962	0.006000815718450101	0.3867226389812148	0.2906495071433927	0.3329381077983071	-1.8763929378237	0.1003145877005434	-0.5405611440753625	0.8730089248328635	-1.651267965535643	-1.65126796553561	-0.1321411177830338	-9.635203146658532e-06	-0.2497395415160666	0.0279148788069594	-0.1899620794088813	0.01206901164868279	-0.003754971369123338	-0.1855631286203041	0.09539341236114586	0.0454557041370549	0.2668053532181511	-11.54311892448058	-19.99959075101296	5.33767742728668	-8.111098804198475	-665.7480120302745	-81.78550298241107	-20.85186096039375	-0.06902337154937527	0.5913677740643762	-0.5793435141102966	-0.3457548831432953	0.3082848520931674	-0.1502821680495172	1.611275807369399	-0.3642228931986407	-0.3642228931986402	-0.2870450965483813	0.03357793552568634	0.09104966589105035	0.3445965550841114	-5.306220891125895e-09	1.054565900914802e-06	1.569761917345749e-07	1.598035444077735e-07	8.886438530856229e-08	1.55830616326292e-07	9.936974821308938e-08
1.53	-0.002989444226567002	-0.01726091045034393	0.8786641465467779	0.5762855939981641	-0.3096814780032133	-0.1939888139095126	-0.7591200340257713	0.5900403471934071	0.5900403471934035	-0.1123630128929554	-0.1745323101034403	0.06251152399242568	0.006296719415276553	0.385885117038518	0.2964607109422344	0.3269652850145486	-1.879197927208869	0.1032791584202703	-0.5421913301564754	0.8887200451231707	-1.654266475663527	-1.654266475663491	-0.1350331162405014	-1.425498260442716e-06	-0.2487144245202829	0.03126790755894886	-0.1823036143244345	0.01105331929714154	-0.003783423940120728	-0.1832033746103786	0.09530355378902261	0.04450264515290003	0.2597037306265581	-11.39683323801655	-19.65322916700144	5.330361565692135	-7.920309750540616	-662.2180125687587	-81.71848994112341	-21.27666795519302	-0.09943879435238401	0.5705084920772414	-0.6151395969616046	-0.2114639455121413	0.2885676692775868	-0.1610681447740965	1.531577776775025	-0.2337209624610274	-0.2337209624607401	-0.2891561313716374	-0.01573787987781123	0.1159800063878958	0.3307949438028114	5.478123056385366e-09	1.035526340374917e-06	8.944148587477415e-08	1.488801811109902e-07	1.036426339606527e-07	1.685325650070321e-07	1.05100572015674e-07
1.54	0.0008638320402257564	-0.01426816106683168	0.8819024547039571	0.5574856573144693	-0.3086341978647005	-0.1994174886604258	-0.7501575200336023	0.5734883465166959	0.5734883465166912	-0.1137276111335729	-0.174532313817383	0.06003079575077279	0.006626181181332185	0.3847147075469186	0.3020523871124058	0.3206369447726698	-1.880546635766378	0.1061647086346027	-0.5434887689028653	0.9036530708900236	-1.655907221386524	-1.655907221386486	-0.1378802711389964	-4.305072903020531e-07	-0.2473798159258643	0.03462649265279625	-0.1746451492399888	0.01003762694560049	-0.003811876511125361	-0.1808436206004531	0.09521369521689943	0.04354958616874547	0.2526021080349641	-11.25636868251134	-19.30539774225972	5.322296785107902	-7.732312557510109	-658.78727250917	-81.67175575589221	-21.67213225538237	-0.1356008813299185	0.5474622483303186	-0.6504470057343903	-0.05449871761142065	0.2924807510142858	-0.08373270110494994	1.455656902678568	-0.09267001222142282	-0.09267001222142028	-0.2780763847538707	0.03213499274247128	0.1529479856180462	0.3457078234556941	9.323538318609019e-09	1.020755324361207e-06	5.614610422977328e-08	1.417032232848738e-07	1.126530657084171e-07	1.747340710111346e-07	1.065346465457532e-07
1.55	0.004703720661736406	-0.01122069268889406	0.8850757500571518	0.538679656159837	-0.3075584218132524	-0.2048574695613157	-0.7410497538644926	0.5569267982093024	0.5569267982092868	-0.1151203443068207	-0.1745323066654113	0.05756492868897624	0.0069892888048689	0.3832069021127214	0.3073941635649271	0.3139674939865161	-1.880396087612093	0.1089762233926905	-0.5444523653108534	0.9177493737223787	-1.656165408314971	-1.656165408314989	-0.1406531699629212	-1.596644240181592e-06	-0.2457454363598332	0.03799406231603632	-0.1669189319362879	0.009034463035403537	-0.003883901220830288	-0.1784560371154718	0.09496644110132536	0.04250577790230583	0.2454004049222319	-11.17806331681963	-18.90591712780798	5.304451950628997	-7.415630650438756	-655.4321648831506	-81.54595763668193	-22.03554363478808	-0.1667973669160177	0.5204940579027884	-0.6833656306579636	0.08844690850347511	0.2731928308270269	-0.09433326875494358	1.363998592089865	0.04314152052832069	0.04314152052008254	-0.2747385275949259	-0.01677266098697465	0.1759313716548619	0.331969768203576	5.174100965175649e-09	1.010902413997221e-06	6.230037874530051e-08	1.38842776109743e-07	1.150179692838061e-07	1.734459365399814e-07	1.030181186531635e-07
1.56	0.008526845830414815	-0.008121214803593277	0.8881807165993645	0.5198828835520584	-0.3064549894156994	-0.2103054184579072	-0.7318055483433441	0.5403697749433612	0.5403697749433343	-0.1165403748475845	-0.1745324172236235	0.05511685510875183	0.007386009771127095	0.3813620169804678	0.3124542885850417	0.3069711825762774	-1.878700926395606	0.1116959778556187	-0.5450823680432096	0.9309409412977684	-1.65500221309603	-1.655002213096103	-0.1433397446421717	-2.397254412033466e-05	-0.2438211196114336	0.04134916119709291	-0.1591927146325889	0.00803129912520632	-0.00395592593053674	-0.1760684536304911	0.09471918698575116	0.04146196963586596	0.2381987018094984	-11.10580644272777	-18.5043848569786	5.285146385767164	-7.099080447873143	-652.1781492782641	-81.43663518443091	-22.3643188431929	-0.2030168209412053	0.4911319618489798	-0.7158191305513703	0.2544238948289992	0.2741286919823687	-0.01701396597857774	1.274709851285455	0.1916064172562572	0.1916064172562539	-0.2608115558190025	0.02789304015641688	0.2109354220917316	0.3432136670189954	1.928641077446966e-08	9.892479489489224e-07	-1.051564945913278e-08	1.24872368368496e-07	1.41671266950371e-07	1.928921328495147e-07	1.090757813313051e-07
1.57	0.01232989676694591	-0.004972600019563007	0.8912141728397249	0.5011106043440393	-0.3053249829163276	-0.2157575413241501	-0.7224341333289456	0.5238313298446525	0.5238313298446333	-0.1179873709314481	-0.1745325277083097	0.0526893592235643	0.007816001190963706	0.3791892865264946	0.3172152658642358	0.2996719190434552	-1.875487147830392	0.1142905810671377	-0.5452879519788125	0.9431821310864102	-1.652442262155981	-1.652442262156034	-0.1460350378120394	-1.929113155140224e-06	-0.2416288009955178	0.04464858560527497	-0.1514397533864486	0.006925536799735869	-0.00407520446088569	-0.1738071342303978	0.09455230341025517	0.0403986083320124	0.2310046352289154	-11.02471882893847	-18.09302580611911	5.260982971246102	-6.749748555560154	-649.1563994853555	-81.33694278628245	-22.6559943739079	-0.233236164540445	0.4605864524561002	-0.7441556302638052	0.3950194668810573	0.2498154114674098	-0.01407074030715131	1.174833968333181	0.3248436099577239	0.3248436099606286	-0.2700785395233396	-0.0112857103389868	0.2307925102438144	0.3231116299560068	5.622590453717266e-08	9.528415405452344e-07	-1.820445560635157e-07	9.701450991960373e-08	1.986850572309055e-07	2.382562426349061e-07	1.271011822228609e-07
1.58	0.01610945339755436	-0.001777974294440487	0.8941732013116338	0.4823784958475752	-0.3041694925296944	-0.2212100680563401	-0.7129451043315248	0.5073258150908596	0.5073258150908491	-0.1194605580154007	-0.1745325468996679	0.05028526901031643	0.008278947815329774	0.3766631557959182	0.3216564768034919	0.2920856288859857	-1.87066678408464	0.1167927553078862	-0.5451631412326559	0.9544637379022368	-1.648416144112794	-1.648416144112827	-0.1485779446600145	-5.713878412190194e-06	-0.2391399852235093	0.0479402021029849	-0.1436867921403091	0.005819774474266306	-0.004194482991233217	-0.1715458148303049	0.09438541983475933	0.03933524702815965	0.2238105686483315	-10.94815379351593	-17.68087628375049	5.236695552532065	-6.411979456307809	-646.2159462547528	-81.26392846419145	-22.91155875336271	-0.2736968762618228	0.4271786938613638	-0.7732244554808351	0.5757409309367728	0.2556428978282864	0.04906497037333586	1.082793256722426	0.4848398378838434	0.4848398378838336	-0.2303342914405029	0.02272740091196756	0.270234853310285	0.3416520849245684	8.940679215390489e-08	9.341457678908801e-07	-3.293654480021857e-07	7.211347011177623e-08	2.586193690232513e-07	2.833881575480387e-07	1.435684284150177e-07
1.59	0.01986211772531699	0.001459427254348346	0.8970550448521146	0.4637022546165732	-0.3029896241181538	-0.2266594160307709	-0.7033482985133154	0.4908676165709662	0.4908676165709555	-0.1209589268292538	-0.1745325392095439	0.04790740330032795	0.008774527767363725	0.3738111938787583	0.3257661378339434	0.2842426727708114	-1.864313384043512	0.1191595657817126	-0.5446457029280545	0.964728541358061	-1.642976347388114	-1.642976347388111	-0.1510767355143395	5.003490320408909e-06	-0.2363840638191336	0.05116856790071413	-0.1359126723766325	0.004585377140416773	-0.004350467108888118	-0.169551203697583	0.09445835487465007	0.03817776770980693	0.2166607607046283	-10.82081083790522	-17.23399017715103	5.203726237540176	-6.071115933928174	-643.6063918071412	-81.16969785881007	-23.13373178780272	-0.2997226815144058	0.3942132949222699	-0.7958200358831459	0.7053566278814235	0.2239211115162643	0.06234891495821497	0.9729912327869452	0.6105981665185261	0.610598166524061	-0.2566589692363985	-0.01021181616418752	0.2856604971485536	0.3122560422449758	1.174867142868199e-07	9.394858580391918e-07	-4.438326057516756e-07	5.122525560253633e-08	3.225172457244839e-07	3.282049508488201e-07	1.579210360865616e-07
